# xmcd CD database file
#
# Track frame offsets:
#	150
#	3511
#	20634
#	39569
#	54645
#	72233
#	88278
#	102332
#	120336
#	135583
#	151344
#	164805
#	180371
#	195979
#	213319
#	229639
#	245320
#	260559
#	278464
#
# Disc length: 3964 seconds
#
# Revision: 0
# Processed by: cddbd v1.5.2PL0 Copyright (c) Steve Scherf et al.
# Submitted via: CDex 2.21
#
DISCID=fe0f7a13
DTITLE=Charlie Parker - Charlie Parker With Strings Deluxe Edition CD 2
DYEAR=2015
DGENRE=Jazz
TTITLE0=Just Friends (take 1)
TTITLE1=Just Friends (take 2)
TTITLE2=Just Friends (takes 3 false and 4 Alt))
TTITLE3=Everything Happens To Me (take 1)
TTITLE4=April In Paris (take 1)
TTITLE5=April In Paris (take 2)
TTITLE6=Summertime (take 1)
TTITLE7=Dancing In The Dark (take 2)
TTITLE8=Dancing In The Dark (take 3)
TTITLE9=Dancing In The Dark (take 4)
TTITLE10=Laura (take 1)
TTITLE11=They Can't Take That Away From Me (take 1)
TTITLE12=Out Of Nowhere (take 1)
TTITLE13=East Of The Sun (take 1)
TTITLE14=Easy To Love (take 1)
TTITLE15=I'm In The Mood for Love (take 3)
TTITLE16=I'll Remember April  (takes 1 and 2 false start)
TTITLE17=Temptation (take 1)
TTITLE18=Stella By Starlight (take 1)
EXTD=YEAR: 2015
EXTT0=
EXTT1=
EXTT2=
EXTT3=
EXTT4=
EXTT5=
EXTT6=
EXTT7=
EXTT8=
EXTT9=
EXTT10=
EXTT11=
EXTT12=
EXTT13=
EXTT14=
EXTT15=
EXTT16=
EXTT17=
EXTT18=
PLAYORDER=
